<svg width="31" height="27" viewBox="0 0 31 27" fill="none" xmlns="http://www.w3.org/2000/svg">
<rect width="31" height="27" fill="#1E1E1E"/>
<path d="M19.5426 17.7763L20.0125 15.7401C20.0634 15.5188 19.9478 15.2917 19.7403 15.2016L17.5474 14.2618C17.3556 14.1796 17.1304 14.2344 16.9992 14.3969L16.0281 15.5834C14.5264 14.8786 13.2772 13.647 12.5587 12.114L13.7452 11.1429C13.9077 11.0097 13.9625 10.7865 13.8803 10.5946L12.9405 8.40178C12.8484 8.19229 12.6213 8.07677 12.4001 8.12767L10.3638 8.59757C10.1524 8.64652 9.99967 8.83448 9.99967 9.05573C9.99967 14.0699 14.0623 18.1405 19.0844 18.1405C19.3037 18.1405 19.4936 17.9897 19.5426 17.7763Z" fill="white"/>
</svg>
